<svg xmlns="http://www.w3.org/2000/svg" id="Groupe_605" data-name="Groupe 605" width="225" height="75" viewBox="0 0 335.968 148.198"><path id="Trac&#xE9;_693" data-name="Trac&#xE9; 693" d="M174.164,294.3c-17.47,0-31.632,11.641-31.632,26h0v.082c0,7.191-7.093,13.021-15.841,13.021h0c-8.748,0-15.841-5.83-15.841-13.021v-.158c0-14.3,14.1-25.9,31.492-25.907Z" transform="translate(-110.849 -237.204)" fill="#678b2d"></path><path id="Trac&#xE9;_694" data-name="Trac&#xE9; 694" d="M190.054,247.917H142.532c-17.5,0-31.683,11.66-31.683,26.044h0v12.875c7.013-9.736,17.56-12.875,26.886-12.875h52.32c8.749,0,15.841-5.83,15.841-13.021h0C205.9,253.747,198.8,247.917,190.054,247.917Z" transform="translate(-110.849 -247.917)" fill="#678b2d"></path><path id="Trac&#xE9;_695" data-name="Trac&#xE9; 695" d="M174.213,272.175H139.228c-15.673,0-28.379,10.445-28.379,23.329v28.677c0-13.718,12.9-24.949,29.276-25.962h34.088c8.748,0,15.841-5.83,15.841-13.021h0C190.054,278,182.962,272.175,174.213,272.175Z" transform="translate(-110.849 -242.314)" fill="#678b2d"></path><text id="aseya" transform="translate(206.968 91.646)" fill="#678b2d" font-size="96" font-family="Helvetica"><tspan x="-128.086" y="0">aseya</tspan></text><text id="Innovons_ensemble" data-name="Innovons ensemble" transform="translate(82.661 142.198)" font-size="24" font-family="Helvetica"><tspan x="0" y="0">Innovons ensemble</tspan></text></svg>